<?xml version="1.0" encoding="UTF-8"?><svg id="a" xmlns="http://www.w3.org/2000/svg" viewBox="0 0 280.45 163.57"><defs><style>.b{stroke-miterlimit:10;}.b,.c{fill:none;stroke:#231f20;stroke-linecap:round;stroke-width:5px;}.c{stroke-linejoin:round;}.d{fill:#231f20;stroke-width:0px;}</style></defs><path class="d" d="M8.57,163.21c-2.66-10.91-4.16-24.99-4.16-35.7h3.74c-.08,10.45,1.25,23.77,3.33,33.31,2.74-9.54,5.82-22.8,6.65-33.31h4.07c.83,10.5,3.82,23.77,6.57,33.31,2-9.54,3.41-22.86,3.41-33.31h3.41c0,10.76-1.83,24.89-4.32,35.7h-4.74c-2.66-8.98-5.4-21.26-6.4-31.11-1,9.84-3.91,22.13-6.65,31.11h-4.91Z"/><path class="d" d="M55.88,146.38h-11.93v16.83h-3.69v-35.7h3.69v16.73h11.93v-16.73h3.78v35.7h-3.78v-16.83Z"/><path class="d" d="M76.73,163.21h-3.69v-10.56c-4.29-5.51-7.89-12.75-9.27-25.14h3.69c1.03,11.12,4.12,17.55,7.46,23.31,3.35-5.76,6.44-12.19,7.46-23.31h3.43c-1.29,12.39-4.98,19.63-9.1,25.14v10.56Z"/><path class="b" d="M89.36,2.5c0,36.84-14.77,73.68-43.43,73.68S2.5,39.34,2.5,2.5M45.93,76.18v29.82"/><path class="b" d="M172.31,10.36c-7.05-10.97-29.17-7.86-38.07-3.61-31.86,15.21-38.9,45.83-29.96,69.44,14.23,37.53,66.18,37.53,76.03,11.6"/><polyline class="c" points="277.95 106.17 198.34 106.17 198.34 2.66"/><path class="d" d="M115.59,162.86v-2.24c1.46.41,3.35.71,5.41.71,4.98,0,9.52-1.99,9.52-6.37s-2.4-6.12-6.44-8.67c-3.86-2.5-8.24-4.84-8.24-10.1,0-6.32,5.49-9.03,12.35-9.03,2.23,0,4.2.31,5.41.66v2.19c-1.46-.36-3.17-.61-5.06-.61-4.89,0-8.92,1.94-8.92,6.58,0,4.39,3.6,6.07,7.46,8.57,4.12,2.65,7.12,4.9,7.12,10.2,0,6.07-5.92,8.82-12.96,8.82-2.15,0-4.2-.25-5.66-.71Z"/><path class="d" d="M138.86,127.52h14.28v2.14h-10.57v14.53h9.75v2.14h-9.75v14.74h11.57v2.14h-15.28v-35.7Z"/><path class="d" d="M158.69,127.52h14.28v2.14h-10.57v14.53h9.75v2.14h-9.75v14.74h11.57v2.14h-15.28v-35.7Z"/><path class="d" d="M207.76,127.51h3.69v33.55h10.72v2.14h-14.41v-35.7Z"/><path class="d" d="M241.76,150.11h-10.81c-.77,4.13-1.46,8.57-1.89,13.11h-3.52c1.72-15.76,5.06-28.86,7.81-35.85h6.01c2.83,6.88,6.35,20.04,7.89,35.85h-3.69c-.43-4.59-1.12-8.98-1.8-13.11ZM231.29,148.07h10.04c-1.63-8.16-3.6-14.13-5.06-18.67-1.37,4.54-3.35,10.56-4.98,18.67Z"/><path class="d" d="M251.3,163.26v-35.85c1.72-.15,4.03-.25,5.58-.25,8.15,0,12.7,3.62,12.7,8.98,0,4.59-2.49,7.8-7.98,8.98,5.75,1.17,8.58,4.23,8.58,8.77,0,6.43-4.29,9.69-13.13,9.69-2.23,0-4.12-.15-5.75-.31ZM254.99,129.45v14.94c7.55-.1,10.9-3.11,10.9-8.01,0-4.39-3.43-7.09-8.07-7.09-.94,0-1.89.05-2.83.15ZM266.31,153.93c0-5.15-3.77-7.85-11.33-7.85v15.15c1.03.15,2.14.2,3.26.2,4.63,0,8.06-1.94,8.06-7.5Z"/></svg>